HIERARCHY
ROOT hip
{
	OFFSET 0.000000 0.000000 0.000000 
	CHANNELS 6 Xposition Yposition Zposition Xrotation Zrotation Yrotation
	JOINT abdomen
	{
		OFFSET 0.000000 3.402643 0.000000 
		CHANNELS 3 Xrotation Zrotation Yrotation
		JOINT chest
		{
			OFFSET 0.000000 8.438565 -0.680529 
			CHANNELS 3 Xrotation Zrotation Yrotation
			JOINT neck
			{
				OFFSET 0.000000 10.207942 -0.272212 
				CHANNELS 3 Xrotation Zrotation Yrotation
				JOINT head
				{
					OFFSET 0.000000 3.130431 0.000000 
					CHANNELS 3 Xrotation Zrotation Yrotation
					End Site
					{
						OFFSET 0.000000 3.130435 0.000000 
					}
				}
			}
			JOINT lCollar
			{
				OFFSET 3.470700 6.669187 -0.816635 
				CHANNELS 3 Yrotation Zrotation Xrotation
				JOINT lShldr
				{
					OFFSET 3.198488 0.000000 0.000000 
					CHANNELS 3 Zrotation Yrotation Xrotation
					JOINT lForeArm
					{
						OFFSET 10.139888 0.000000 0.000000 
						CHANNELS 3 Yrotation Zrotation Xrotation
						JOINT lHand
						{
							OFFSET 8.370511 0.000000 0.000000 
							CHANNELS 3 Zrotation Yrotation Xrotation
							End Site
							{
								OFFSET 4.083176 0.000000 0.000000 
							}
						}
					}
				}
			}
			JOINT rCollar
			{
				OFFSET -3.470700 6.669187 -0.816635 
				CHANNELS 3 Yrotation Zrotation Xrotation
				JOINT rShldr
				{
					OFFSET -3.198488 0.000000 0.000000 
					CHANNELS 3 Zrotation Yrotation Xrotation
					JOINT rForeArm
					{
						OFFSET -10.139888 0.000000 0.000000 
						CHANNELS 3 Yrotation Zrotation Xrotation
						JOINT rHand
						{
							OFFSET -8.370511 0.000000 0.000000 
							CHANNELS 3 Zrotation Yrotation Xrotation
							End Site
							{
								OFFSET -4.083176 0.000000 0.000000 
							}
						}
					}
				}
			}
		}
	}
	JOINT lThigh
	{
		OFFSET 5.308129 -1.633274 1.361059 
		CHANNELS 3 Xrotation Zrotation Yrotation
		JOINT lShin
		{
			OFFSET -2.041588 -20.007561 0.000000 
			CHANNELS 3 Xrotation Zrotation Yrotation
			JOINT lFoot
			{
				OFFSET 0.000000 -19.190928 -1.224953 
				CHANNELS 3 Xrotation Yrotation Zrotation
				End Site
				{
					OFFSET 0.000000 -2.449906 4.627600 
				}
			}
		}
	}
	JOINT rThigh
	{
		OFFSET -5.308129 -1.633274 1.361059 
		CHANNELS 3 Xrotation Zrotation Yrotation
		JOINT rShin
		{
			OFFSET 2.041588 -20.007561 0.000000 
			CHANNELS 3 Xrotation Zrotation Yrotation
			JOINT rFoot
			{
				OFFSET 0.000000 -19.190928 -1.224953 
				CHANNELS 3 Xrotation Yrotation Zrotation
				End Site
				{
					OFFSET 0.000000 -2.449906 4.627600 
				}
			}
		}
	}
}
MOTION
Frames: 6
Frame Time: 0.050000
5.298312 51.779797 2.980662 4.712926 0.877067 -11.267554 4.404440 -1.866481 -3.006283 -3.093667 -3.675535 -4.890543 2.264982 0.489037 -0.133437 -4.427335 2.459665 15.619184 3.114321 -11.884634 0.868573 -64.758095 8.768178 -20.633558 -49.648640 -12.014801 -9.043589 6.269323 -4.584346 -28.473158 -2.530839 4.873303 10.133104 73.125359 17.433895 -4.068505 55.237251 14.678269 5.236355 -7.182310 2.843951 -2.882530 -27.512627 2.955417 -13.728240 34.562447 -5.281538 -3.925763 -12.145798 30.696810 -2.634589 -22.345745 -2.584597 11.052941 36.315514 0.130841 1.339375 -15.255074 -13.975652 5.648701 
6.755455 48.768124 8.759349 8.356753 -0.031854 -22.686777 6.472109 -2.224350 -3.633330 -2.856651 -4.510130 -7.151479 4.962590 0.129771 -0.111579 -6.125144 4.210177 33.809021 11.207674 -17.606777 3.099161 -57.712215 5.322537 -64.487206 -99.900055 -16.679901 -22.690258 1.389507 -4.094112 -41.889904 -4.403647 4.392267 10.209859 76.198441 23.416918 -7.375418 97.919327 18.874483 -11.817417 -12.534308 4.233916 -6.515346 -43.225899 10.945096 -15.433900 49.454044 -6.014522 -6.053870 -10.925379 38.006584 -9.561872 -27.316372 -4.536392 12.605311 50.700439 2.618382 2.570957 -27.482826 -13.247194 7.899519 
7.748235 46.467602 13.263695 11.256046 -0.754729 -32.656635 7.886330 -1.689661 1.893532 -3.202736 -3.918825 -3.789448 7.114000 0.052653 -0.137677 -7.175091 4.789653 43.417824 13.145123 -19.508343 2.960740 -50.737949 2.538209 -93.780273 -138.344040 -20.295080 -36.418327 -3.490308 -3.603878 -55.306648 -5.994595 4.261927 10.265726 78.796829 29.201029 -12.198061 130.358398 22.538027 -24.790089 -13.541774 2.624614 -10.604273 -53.317310 22.093649 -17.021896 57.114330 -6.785823 -7.038850 -6.521897 38.570732 -16.734234 -29.130604 -7.426875 14.137802 56.603951 4.356580 2.805033 -32.636112 -12.885049 12.260077 
7.878257 45.635773 15.123873 12.564390 -1.080203 -39.073292 7.994955 0.169518 16.899097 -4.417863 -1.044094 9.118535 8.094921 0.427739 -0.236019 -7.053171 3.380337 36.715427 4.382234 -14.858244 -1.217412 -44.288063 2.059974 -94.035950 -152.251724 -21.350552 -48.777935 -2.645509 -8.274394 -29.763123 -6.938231 4.760974 10.279465 80.210327 34.107796 -19.214022 141.600098 24.932306 -29.296453 -6.912467 -3.924902 -15.102062 -53.823803 25.691799 -15.914069 64.925781 -7.199443 -8.111367 -14.050078 41.131142 -15.265939 -29.839556 -8.641289 14.670434 57.452312 5.111754 2.567313 -33.370590 -10.295147 14.680125 
7.867807 45.569885 15.700884 12.961001 -1.178050 -42.829010 7.364059 1.340928 30.030659 -5.204864 1.624394 24.902313 8.397348 0.681224 -0.302752 -6.782788 1.915053 21.470001 -6.623133 -9.651569 -6.167953 -37.289349 7.659965 -77.192421 -152.641907 -19.020603 -57.991783 0.977335 -14.683151 10.807232 -7.477664 5.498011 10.271758 80.340149 38.200409 -26.401361 141.253510 26.568066 -29.082140 1.963491 -11.020267 -19.273050 -52.541878 27.328203 -15.630851 66.596428 -7.351830 -8.313100 -15.985057 43.620731 -15.565796 -30.245775 -8.872108 14.700076 56.888374 5.335997 2.382196 -33.136536 -7.074212 15.607963 
8.245129 45.409309 16.428244 13.297508 -1.261693 -45.314575 7.057363 0.101546 30.317730 -4.588008 1.381772 36.610649 8.645004 0.313633 -0.226811 -7.742385 2.793715 8.985718 -11.234373 -8.775896 -8.634243 -27.682308 12.747338 -61.220230 -142.638672 -15.661480 -59.141479 0.977300 -14.683200 10.807200 -7.960408 6.147165 10.264917 79.865326 41.350273 -31.332682 141.004639 28.616043 -28.570946 7.056081 -13.432776 -22.614471 -52.058125 27.787573 -15.153851 68.682541 -7.460762 -8.597018 -18.516159 45.428337 -14.624543 -30.651400 -9.831705 15.019333 56.805157 5.529055 2.269469 -33.276276 -4.975020 17.154974 
